<svg width="17" height="16" viewBox="0 0 17 16" fill="none" xmlns="http://www.w3.org/2000/svg">
<path d="M8.5 0C5.39838 0 2.875 2.52338 2.875 5.625C2.875 6.67294 3.16528 7.69563 3.71466 8.58288L8.17981 15.7784C8.26534 15.9163 8.41603 16 8.57809 16C8.57934 16 8.58056 16 8.58181 16C8.74528 15.9987 8.89628 15.9124 8.98025 15.7721L13.3316 8.50688C13.8507 7.63838 14.125 6.64184 14.125 5.625C14.125 2.52338 11.6016 0 8.5 0ZM12.5271 8.02556L8.571 14.6308L4.51147 8.08894C4.05419 7.35044 3.80625 6.49844 3.80625 5.625C3.80625 3.04031 5.91531 0.93125 8.5 0.93125C11.0847 0.93125 13.1906 3.04031 13.1906 5.625C13.1906 6.47253 12.959 7.30275 12.5271 8.02556Z" fill="black"/>
<path d="M8.5 2.8125C6.94919 2.8125 5.6875 4.07419 5.6875 5.625C5.6875 7.16591 6.92866 8.4375 8.5 8.4375C10.0907 8.4375 11.3125 7.14897 11.3125 5.625C11.3125 4.07419 10.0508 2.8125 8.5 2.8125ZM8.5 7.50625C7.46072 7.50625 6.61875 6.66147 6.61875 5.625C6.61875 4.59113 7.46613 3.74375 8.5 3.74375C9.53387 3.74375 10.3781 4.59113 10.3781 5.625C10.3781 6.64634 9.55575 7.50625 8.5 7.50625Z" fill="black"/>
</svg>
